<svg width="1432" height="14" viewBox="0 0 1432 14" fill="none" xmlns="http://www.w3.org/2000/svg">
<rect y="1.23999" width="3.61075" height="12.38" fill="#494949"/>
<rect x="1428.39" y="1.23999" width="3.61075" height="12.38" fill="#494949"/>
<path d="M641.155 4.75777C641.155 6.29972 640.133 7.37388 639.267 7.78968V7.85898C640.324 8.17084 640.999 8.8292 641.103 10.5964L641.277 13.611H637.569L637.413 10.579C637.361 9.55685 636.876 9.21035 635.906 9.21035H634.832V13.611H631.193V1.24076H637.049C639.561 1.24076 641.155 2.29759 641.155 4.75777ZM637.517 5.22555C637.517 4.22069 636.98 3.83954 636.183 3.83954H634.832V6.61157H636.183C636.98 6.61157 637.517 6.21309 637.517 5.22555Z" fill="#494949"/>
<path d="M644.031 7.42585C644.031 2.83467 646.023 0.946228 649.661 0.946228C653.3 0.946228 655.292 2.83467 655.292 7.42585C655.292 12.017 653.3 13.9055 649.661 13.9055C646.023 13.9055 644.031 12.017 644.031 7.42585ZM647.669 7.42585C647.669 10.4578 648.362 11.3933 649.661 11.3933C650.961 11.3933 651.654 10.4578 651.654 7.42585C651.654 4.39394 650.961 3.45838 649.661 3.45838C648.362 3.45838 647.669 4.39394 647.669 7.42585Z" fill="#494949"/>
<path d="M665.134 5.90124V1.24076H668.772V13.611H665.134V8.75989H662.102V13.611H658.464V1.24076H662.102V5.90124H665.134Z" fill="#494949"/>
<path d="M683.119 13.611H679.394L678.822 11.5146H675.392L674.872 13.611H671.199L674.993 1.24076H679.255L683.119 13.611ZM676.379 7.59911L676.067 8.8292H678.077L677.731 7.59911C677.505 6.75017 677.315 5.83193 677.107 4.79242H677.038C676.83 5.77996 676.604 6.75017 676.379 7.59911Z" fill="#494949"/>
<path d="M688.753 13.611H685.548V1.24076H689.966L691.3 6.71552C691.577 7.82433 691.768 8.7599 691.958 9.97266H692.027C692.218 8.7599 692.409 7.82433 692.668 6.71552L694.002 1.24076H698.42V13.611H695.215V9.00245C695.215 8.11886 695.233 7.16598 695.267 6.17844H695.198C694.973 7.1833 694.765 8.15351 694.522 9.15837L693.413 13.611H690.555L689.463 9.15837C689.203 8.15351 688.996 7.1833 688.788 6.17844H688.718C688.753 7.16598 688.753 7.96293 688.753 9.00245V13.611Z" fill="#494949"/>
<path d="M716.783 4.72312H713.144C713.092 3.64896 712.555 3.23315 711.776 3.23315C710.944 3.23315 710.442 3.64896 710.442 4.42859C710.442 4.94835 710.753 5.3295 711.637 5.53741L712.798 5.83193C715.708 6.57692 717.042 7.56446 717.042 9.73011C717.042 12.4155 714.894 13.9055 711.845 13.9055C708.674 13.9055 706.699 12.8833 706.613 9.76476H710.251C710.303 11.0988 710.875 11.6012 711.845 11.6012C712.815 11.6012 713.352 11.1334 713.352 10.3711C713.352 9.73011 712.936 9.36628 712.018 9.14105L710.84 8.84652C708.051 8.15351 706.786 7.0447 706.786 4.93102C706.786 2.45352 708.778 0.946228 711.776 0.946228C714.894 0.946228 716.661 2.12434 716.783 4.72312Z" fill="#494949"/>
<path d="M726.838 5.90124V1.24076H730.476V13.611H726.838V8.75989H723.806V13.611H720.168V1.24076H723.806V5.90124H726.838Z" fill="#494949"/>
<path d="M744.823 13.611H741.098L740.526 11.5146H737.096L736.576 13.611H732.903L736.697 1.24076H740.959L744.823 13.611ZM738.083 7.59911L737.772 8.8292H739.781L739.435 7.59911C739.21 6.75017 739.019 5.83193 738.811 4.79242H738.742C738.534 5.77996 738.309 6.75017 738.083 7.59911Z" fill="#494949"/>
<path d="M750.457 13.611H747.252V1.24076H751.67L753.004 6.71552C753.281 7.82433 753.472 8.7599 753.662 9.97266H753.732C753.922 8.7599 754.113 7.82433 754.373 6.71552L755.707 1.24076H760.125V13.611H756.919V9.00245C756.919 8.11886 756.937 7.16598 756.971 6.17844H756.902C756.677 7.1833 756.469 8.15351 756.226 9.15837L755.118 13.611H752.259L751.167 9.15837C750.908 8.15351 750.7 7.1833 750.492 6.17844H750.422C750.457 7.16598 750.457 7.96293 750.457 9.00245V13.611Z" fill="#494949"/>
<path d="M771.95 1.24076V4.01279H767.393V5.90124H771.603V8.67327H767.393V10.8389H771.95V13.611H763.755V1.24076H771.95Z" fill="#494949"/>
<path d="M782.094 1.24076H786.287L782.631 7.26993L786.599 13.611H782.267L778.854 7.52981V13.611H775.216V1.24076H778.854V7.06202L782.094 1.24076Z" fill="#494949"/>
<path d="M795.682 5.90124V1.24076H799.32V13.611H795.682V8.75989H792.65V13.611H789.012V1.24076H792.65V5.90124H795.682Z" fill="#494949"/>
<rect x="631.195" y="1.24329" width="3.61075" height="12.38" fill="#494949"/>
<rect x="658.462" y="1.24329" width="3.63605" height="12.38" fill="#494949"/>
<rect x="665.133" y="1.24359" width="3.63672" height="12.3794" fill="#494949"/>
<rect x="685.544" y="1.24359" width="3.17975" height="12.3794" fill="#494949"/>
<rect x="695.224" y="1.24359" width="3.17975" height="12.3794" fill="#494949"/>
<rect x="720.17" y="1.24359" width="3.61841" height="12.3794" fill="#494949"/>
<rect x="726.846" y="1.24359" width="3.61841" height="12.3794" fill="#494949"/>
<rect x="747.263" y="1.24359" width="3.15625" height="12.3794" fill="#494949"/>
<rect x="756.909" y="1.24359" width="3.20673" height="12.3794" fill="#494949"/>
<rect x="763.752" y="1.24359" width="3.63599" height="12.3794" fill="#494949"/>
<rect x="775.213" y="1.24359" width="3.60059" height="12.3794" fill="#494949"/>
<rect x="789.005" y="1.24359" width="3.63141" height="12.3794" fill="#494949"/>
<rect x="795.688" y="1.24359" width="3.61969" height="12.3794" fill="#494949"/>
</svg>
