<svg width="45" height="45" viewBox="0 0 45 45" fill="none" xmlns="http://www.w3.org/2000/svg">
<path d="M26.6669 3.71266C27.2883 4.03272 27.9097 4.35277 28.2825 4.73684C25.7347 7.93741 24.4298 13.9545 24.4298 22.0199C24.4298 36.6145 17.9671 45 10.3238 45C7.03028 45 5.10391 43.6558 3.61252 43.6558C2.68041 43.6558 1.68615 44.1038 1.18902 44.4879C1.62401 42.1195 0.381186 38.6629 0.194763 35.8464C-0.115943 31.6216 2.61827 27.1408 7.40313 26.3727V27.6529C3.55038 28.357 1.49973 32.4538 1.87257 36.0384C2.18328 39.239 4.35821 43.2717 9.76449 43.2717C16.165 43.2717 20.3285 36.9346 20.3285 22.0199C20.3285 12.4182 23.3112 6.78521 26.6669 3.71266ZM35.553 19.7155C35.7395 19.3954 35.9259 19.0114 36.1123 18.6273C41.3943 18.3073 43.1342 13.8265 43.01 10.6899C42.8235 5.24893 39.0951 2.2404 35.3045 1.92034C33.0052 1.72831 31.7624 2.2404 30.8925 2.62447C30.5196 2.30441 29.9603 1.92034 29.4011 1.60028C31.141 0.704125 33.0052 0.320057 34.9938 0.44808C37.5415 0.640114 38.4737 1.60028 40.6486 1.60028C42.8857 1.60028 43.6314 0.896159 44.1906 0.640114C42.9478 3.52063 44.8742 6.46515 44.8121 11.01C44.7499 13.8905 42.8235 19.7795 35.553 19.7155ZM28.469 23.6202C28.9039 24.0683 29.2768 24.5804 29.5254 25.0285C28.0961 25.9246 26.7911 26.5007 24.8026 27.0128C24.8648 26.5647 24.8648 26.0526 24.9269 25.6046C26.4183 25.0925 27.4126 24.5164 28.469 23.6202ZM19.5206 18.2432H19.8935C19.8313 18.6273 19.7692 19.2034 19.7692 19.4595H19.2099C15.4193 19.4595 14.1765 21.3798 14.1765 22.8521C14.1765 24.9644 16.7864 26.1166 19.6449 26.2447C19.6449 26.7568 19.6449 27.0768 19.5828 27.5249C15.295 27.5249 12.9337 25.2845 12.9337 22.8521C12.9337 20.2916 15.2329 18.2432 19.5206 18.2432ZM15.7922 1.79232C15.1708 2.11238 14.4872 2.49644 13.9279 2.94452C12.6851 2.11238 11.2559 1.72831 9.64021 1.72831C3.79894 1.72831 1.56187 6.78521 1.62401 10.4979C1.68615 13.9545 3.98537 16.963 7.40313 17.5391V18.7553C3.17753 18.4353 0.194763 15.0427 0.00833957 10.9459C-0.115943 8.25747 1.18902 5.95306 1.25116 3.45661C1.25116 2.94452 1.06474 1.28023 0.754032 0.640114C1.25116 1.02418 2.24542 1.53627 3.17753 1.47226C4.66892 1.40825 6.71958 0 9.82663 0C11.9394 0 13.9901 0.640114 15.7922 1.79232ZM16.4136 5.56899C16.7864 5.18492 17.5943 4.41679 18.2778 4.03272C19.6449 5.50498 20.7635 7.36131 21.6956 9.66572C20.8256 11.522 20.142 13.8265 19.8935 16.0669C19.2099 11.202 18.1535 7.8734 16.4136 5.56899ZM35.3045 27.5889C35.0559 27.2688 34.8073 26.8848 34.5588 26.5647C40.2136 24.7084 44.9363 29.0612 44.9985 34.5661C45.0606 37.8947 43.1964 41.5434 43.7557 44.4879C43.2585 44.1038 42.2643 43.6558 41.3322 43.6558C39.8408 43.6558 37.7901 45 34.6831 45C29.6496 45 25.3619 41.7994 22.8141 35.4623C23.6841 33.606 24.3676 31.3016 24.6162 29.0612C25.9833 38.8549 29.9603 43.2717 34.8695 43.2717C40.7107 43.2717 43.1964 38.6629 43.2585 34.6302C43.3207 30.3414 39.9029 26.3087 35.3045 27.5889ZM16.0407 41.1593L15.9165 41.2873C13.7415 39.495 8.77023 37.1906 5.8496 36.0384C7.65169 35.1422 8.02454 33.926 8.02454 30.7255V14.3385C8.02454 12.2902 6.84386 10.7539 4.91748 11.33C11.318 5.633 16.4136 0.384068 22.6898 0.384068C29.4011 0.384068 33.2538 5.50498 35.0559 7.42532C36.423 8.89758 38.4737 10.4979 39.8408 10.6259C37.9765 12.0341 36.9823 15.4908 35.2423 19.0754C34.6209 20.4196 33.5024 21.7639 31.8867 23.1721C31.4517 22.66 30.9546 22.1479 30.3953 21.6999C32.8188 18.6913 33.3781 15.1067 33.1295 12.0341C32.6945 6.46515 28.2825 2.2404 22.5656 2.2404C16.2272 2.2404 11.8151 8.70555 11.8151 15.6828V30.2134C11.8151 35.3343 12.2501 37.7027 16.0407 41.1593ZM29.4632 41.7354L29.4011 41.6714C31.141 39.367 32.446 35.6543 32.0731 31.0455C31.8246 27.8449 30.0225 22.532 25.0512 20.4196L25.1133 19.1394C30.5817 21.1238 33.4402 25.9886 35.3666 28.8051C37.4173 31.8137 39.3436 34.8222 42.0778 35.3343C36.7959 37.0626 32.3838 39.559 29.4632 41.7354Z" fill="#151515"/>
</svg>
